<?xml version="1.0" standalone="no"?>
<!DOCTYPE svg PUBLIC "-//W3C//DTD SVG 20010904//EN"
 "http://www.w3.org/TR/2001/REC-SVG-20010904/DTD/svg10.dtd">
<svg version="1.0" xmlns="http://www.w3.org/2000/svg"
 width="990.000000pt" height="702.000000pt" viewBox="0 0 990.000000 702.000000"
 preserveAspectRatio="xMidYMid meet">

<g transform="translate(0.000000,702.000000) scale(0.100000,-0.100000)"
fill="#000000" stroke="none">
<path d="M0 3510 l0 -3510 4950 0 4950 0 0 3510 0 3510 -4950 0 -4950 0 0
-3510z m7781 2253 c338 -295 835 -726 1104 -956 270 -231 491 -423 493 -426 3
-8 201 187 -2342 -2301 -1137 -1114 -2072 -2025 -2076 -2025 -4 0 -998 970
-2208 2155 l-2201 2155 22 22 c12 12 515 448 1117 967 l1095 945 2191 1 2191
0 614 -537z"/>
<path d="M1789 5342 c-565 -493 -1047 -916 -1072 -939 l-46 -43 147 -157 c157
-168 4128 -4063 4142 -4063 7 0 3353 3272 4145 4053 l180 178 -30 26 c-213
186 -660 571 -931 805 -188 161 -535 461 -772 666 l-431 372 -2153 0 -2153 -1
-1026 -897z m3183 728 c15 -28 28 -46 30 -40 2 6 11 8 21 4 12 -4 16 -13 12
-28 -2 -11 -2 -15 1 -8 9 19 24 4 24 -25 0 -32 -26 -63 -53 -63 -11 0 -17 -3
-14 -7 4 -3 0 -14 -8 -23 -14 -16 -12 -20 21 -50 34 -29 42 -32 88 -27 28 2
60 8 71 11 13 5 11 2 -5 -8 -36 -22 -108 -20 -148 4 l-32 20 25 -50 25 -50
-45 0 -45 0 0 71 0 70 -33 -35 c-38 -40 -67 -50 -132 -44 -46 3 -63 -7 -22
-14 19 -4 17 -6 -13 -15 l-35 -10 47 -8 c26 -4 46 -11 43 -15 -8 -14 484 -18
538 -4 69 17 80 32 24 32 -25 0 -55 5 -66 12 -16 8 -26 8 -39 0 -16 -11 -16
-11 1 -6 9 3 17 1 17 -4 0 -5 -8 -14 -17 -20 -16 -10 -15 -11 4 -7 13 3 26 0
30 -6 4 -7 -11 -8 -48 -4 -30 4 -74 7 -99 7 l-45 0 31 16 c53 26 73 95 49 170
-13 40 53 77 100 56 34 -16 44 -60 19 -81 -11 -9 -18 -24 -16 -33 2 -10 -1
-18 -7 -18 -18 0 -12 -20 14 -45 19 -20 34 -25 75 -25 41 0 50 3 50 18 0 9 -9
23 -20 30 -35 21 -25 60 27 110 26 25 49 40 51 34 2 -8 20 -3 53 13 27 14 49
23 49 20 0 -3 -21 -47 -46 -97 -38 -76 -44 -95 -35 -110 12 -19 12 -18 -33
-32 -24 -7 -42 -130 -25 -163 10 -18 10 -28 -1 -47 -7 -14 -10 -32 -7 -40 4
-10 -1 -20 -12 -26 -83 -44 -859 -44 -943 1 -16 9 -17 13 -7 26 11 12 10 17
-4 24 -21 12 -22 62 -2 79 11 9 12 17 4 31 -5 11 -8 23 -5 28 11 17 -18 83
-41 92 -19 7 -21 12 -12 27 9 14 3 35 -30 106 -23 49 -41 93 -41 98 0 5 20 -1
44 -15 30 -17 46 -21 49 -14 2 7 23 -7 45 -29 47 -46 56 -92 25 -116 -10 -7
-19 -21 -21 -30 -2 -15 5 -18 48 -18 55 0 104 19 114 45 3 9 -1 18 -10 22 -8
3 -13 12 -10 20 3 8 -1 21 -9 29 -23 24 -18 61 10 80 44 28 114 -6 100 -50 -3
-12 -8 -36 -10 -54 -3 -27 1 -35 25 -47 16 -8 49 -15 74 -15 36 0 52 6 78 29
31 28 32 30 15 48 -9 11 -15 22 -12 25 3 3 -5 8 -19 12 -51 13 -56 73 -10 117
l24 22 1 -24 c1 -20 2 -21 6 -4 3 11 14 32 24 47 11 14 19 31 19 37 0 25 18 8
42 -39z m-185 -316 c-3 -3 -12 -4 -19 -1 -8 3 -5 6 6 6 11 1 17 -2 13 -5z
m-204 -590 c37 -74 67 -140 67 -145 0 -5 -10 -9 -22 -9 -19 0 -23 6 -24 34 0
19 -8 46 -17 60 -15 22 -25 26 -66 26 -46 0 -49 -1 -66 -40 -10 -21 -15 -48
-12 -60 5 -18 1 -20 -36 -20 -35 0 -38 2 -24 13 27 20 128 217 122 238 -3 10
-18 22 -33 28 -27 9 -27 9 9 10 l36 1 66 -136z m36 20 c30 -64 67 -129 82
-145 l27 -29 -24 0 c-21 0 -32 17 -85 121 -75 151 -82 169 -66 169 6 0 36 -52
66 -116z m201 -29 l0 -145 -26 0 c-23 0 -25 2 -14 15 29 35 24 229 -6 260 -14
13 -12 15 15 15 l31 0 0 -145z m140 125 c25 -25 26 -77 3 -110 -12 -18 -14
-25 -4 -28 7 -2 37 -26 68 -53 34 -30 66 -49 80 -49 14 0 21 -4 18 -10 -15
-24 -55 -7 -120 50 -37 33 -74 60 -81 60 -14 0 89 -100 121 -118 19 -11 19
-11 -3 -12 -16 0 -47 22 -91 65 -37 36 -73 65 -79 65 -18 0 -15 -82 4 -108 14
-21 14 -22 -10 -22 l-26 0 0 145 0 145 50 0 c37 0 55 -5 70 -20z m330 -125 l0
-145 -32 0 c-30 0 -31 1 -13 14 17 12 19 28 20 132 l0 119 -45 3 c-39 3 -48 0
-67 -25 -23 -28 -29 -20 -17 25 6 20 12 22 80 22 l74 0 0 -145z m169 103 c0
-39 -1 -41 -10 -18 -13 33 -26 40 -76 40 l-43 0 0 -113 c0 -86 4 -118 16 -135
14 -21 14 -22 -10 -22 l-26 0 0 145 0 145 75 0 75 0 -1 -42z m-429 -33 c0 -12
-9 -30 -19 -39 -19 -17 -19 -16 -14 22 3 22 0 49 -7 63 l-13 24 27 -24 c14
-14 26 -34 26 -46z m2122 -454 c46 -18 114 -88 139 -144 33 -75 33 -211 1
-282 -62 -135 -206 -193 -362 -146 -61 19 -82 31 -126 75 -60 60 -84 123 -84
215 0 166 98 283 250 300 60 7 139 -1 182 -18z m-4877 -5 c87 -41 138 -116
153 -224 30 -217 -80 -356 -283 -357 -93 0 -165 28 -226 87 -61 61 -74 99 -74
218 0 98 2 109 30 159 56 101 127 139 265 140 70 1 94 -3 135 -23z m500 -7
l-35 -31 0 -104 c0 -63 4 -104 10 -104 6 0 10 39 10 98 0 96 1 99 30 127 16
16 33 26 36 22 4 -4 -5 -16 -19 -28 -26 -20 -27 -24 -27 -120 l0 -100 98 3 97
3 3 106 3 105 -38 27 -38 27 130 0 130 -1 -37 -30 -38 -31 0 -242 c0 -231 4
-266 30 -266 3 0 4 113 2 250 l-3 250 28 25 c40 35 54 31 16 -6 l-33 -30 0
-232 0 -231 47 -48 47 -48 -149 2 -150 2 128 3 c96 3 127 7 124 16 -2 8 -45
14 -138 17 l-134 5 38 23 37 24 0 99 c0 87 -2 99 -17 100 -11 0 -13 3 -5 6 36
15 -1 23 -103 23 l-115 0 0 -119 c0 -86 3 -120 13 -124 9 -3 12 21 12 102 0
58 4 106 9 106 5 0 8 -42 7 -94 l-2 -94 48 -49 47 -48 -149 2 -150 2 127 3
c107 3 126 6 122 18 -5 12 -31 15 -138 15 l-131 0 37 33 38 32 -7 96 c-5 91
-7 96 -27 92 -20 -3 -20 -3 2 8 12 7 22 16 22 22 0 13 -51 -1 -72 -20 -16 -14
-18 -14 -18 -1 0 18 24 40 68 62 l32 17 0 98 0 99 -42 31 -42 31 132 0 133 0
-36 -31z m1721 9 c-9 -13 -28 -45 -42 -72 l-26 -50 -13 30 c-22 53 -50 69
-118 69 l-62 0 -3 -249 c-2 -237 1 -276 27 -276 3 0 5 112 3 250 l-3 250 49 0
c27 0 57 -6 68 -15 17 -13 16 -14 -13 -4 -17 6 -44 9 -60 7 l-28 -3 -3 -228
-2 -227 46 -50 47 -50 -144 2 -144 2 123 3 c92 3 122 7 119 16 -2 8 -45 14
-138 17 l-134 5 38 23 37 24 0 234 0 234 -35 0 c-50 0 -105 -25 -105 -47 0
-10 -5 -25 -11 -33 -8 -11 -9 -8 -4 15 10 47 38 69 98 75 68 7 62 25 -8 25
-64 -1 -103 -24 -119 -73 l-11 -32 -37 75 -37 75 331 0 330 0 -16 -22z m554
15 c0 -4 -10 -17 -22 -30 l-21 -23 39 -91 c21 -50 44 -95 51 -101 23 -19 15
17 -24 102 l-36 81 33 32 33 32 -22 -30 c-26 -34 -24 -49 20 -143 23 -48 33
-62 42 -53 20 20 34 12 54 -28 l19 -39 -39 -5 c-22 -3 -43 -9 -47 -14 -4 -4
15 -59 44 -121 42 -93 57 -116 86 -133 l35 -21 -26 28 c-23 27 -109 202 -109
224 0 6 20 10 45 10 49 0 54 8 30 50 -8 14 -14 32 -15 40 0 8 14 -12 30 -44
17 -32 30 -60 30 -61 0 -1 -22 0 -50 3 -32 3 -50 1 -50 -6 0 -6 16 -48 36 -94
34 -81 59 -112 134 -170 l35 -28 -160 2 -160 2 139 6 c121 4 137 7 122 19 -13
11 -49 14 -154 12 l-137 -1 33 29 33 29 -39 82 -40 83 -55 -52 -54 -51 -37 45
c-21 25 -41 45 -46 45 -15 0 -42 -72 -42 -116 0 -36 7 -52 37 -89 l37 -45
-148 2 -149 2 133 3 c72 2 132 7 132 12 0 5 -7 14 -16 22 -21 17 -44 64 -44
89 0 11 9 48 21 82 13 39 17 64 11 70 -13 13 -51 -71 -59 -127 -4 -34 -1 -46
21 -72 14 -17 26 -34 26 -37 0 -3 -54 -6 -120 -6 -112 0 -149 9 -100 25 37 12
99 85 135 159 19 40 35 80 35 88 0 17 -20 28 -51 28 -23 0 -25 23 -4 40 8 7
15 19 15 26 0 19 7 18 42 -7 39 -28 51 -14 15 17 -18 15 -23 24 -13 24 8 0 18
-4 21 -10 15 -25 35 -4 64 68 37 93 37 98 11 112 -42 22 -18 30 95 30 63 0
115 -3 115 -7z m1618 0 c-2 -5 -18 -34 -36 -65 -33 -57 -52 -72 -52 -43 0 8
-4 15 -9 15 -5 0 -12 9 -16 19 -7 24 -54 41 -111 41 l-44 0 0 -258 c0 -256 0
-257 23 -271 17 -10 19 -11 10 0 -10 10 -13 75 -13 256 l0 243 53 0 c28 0 59
-5 67 -10 10 -7 -3 -8 -42 -4 l-58 7 0 -237 0 -237 40 -38 c22 -21 40 -41 40
-44 0 -4 -64 -6 -142 -5 l-143 2 123 3 c92 3 122 7 119 16 -2 8 -43 13 -136
15 l-133 3 41 29 41 30 -2 228 -3 227 -52 0 c-56 -1 -89 -20 -96 -59 l-4 -21
-2 21 c-2 40 30 66 92 73 75 8 73 26 -3 25 -70 -1 -108 -22 -117 -64 -8 -40
-17 -38 -38 10 -10 22 -22 40 -26 40 -4 0 -20 -23 -36 -51 -15 -28 -29 -46
-31 -40 -2 6 11 36 28 66 17 30 28 59 25 65 -8 13 -34 -19 -65 -79 l-22 -45
-14 32 c-19 47 -68 73 -129 70 l-50 -3 -3 -252 -2 -252 25 -17 c14 -9 25 -20
25 -25 0 -5 -51 -9 -112 -9 l-113 1 33 28 32 27 0 232 0 232 -37 0 c-47 0 -84
-18 -99 -48 -16 -33 -22 -36 -17 -8 7 37 33 55 93 63 65 10 71 27 10 31 -59 3
-110 -23 -131 -67 l-16 -35 -36 72 -36 72 655 0 c361 0 654 -3 652 -7z m1200
-19 c96 -48 142 -127 150 -254 5 -101 -6 -150 -51 -216 -108 -161 -395 -143
-501 31 -30 48 -31 54 -31 165 0 111 1 117 30 164 61 99 132 135 266 136 72 0
93 -4 137 -26z m-4467 -33 c11 -26 29 -46 52 -58 l35 -18 -37 -62 c-37 -60
-61 -143 -61 -210 0 -18 -4 -33 -9 -33 -11 0 -21 35 -21 73 0 42 -38 145 -71
193 -33 49 -35 54 -14 54 19 0 82 56 90 81 9 28 18 23 36 -20z m1121 -8 c-11
-15 -29 -44 -41 -63 -11 -19 -21 -29 -21 -22 0 27 72 142 77 125 3 -7 -4 -25
-15 -40z m2173 20 c-10 -15 -29 -49 -44 -76 -14 -27 -27 -45 -29 -39 -4 13 22
66 55 110 29 39 42 43 18 5z m-3171 -61 l38 -19 -25 -29 c-53 -63 -87 -135
-98 -207 -15 -93 -22 -111 -27 -64 -5 61 42 187 104 274 14 20 14 22 -8 33
-30 16 -88 71 -88 84 0 5 15 -4 33 -22 18 -17 50 -40 71 -50z m3769 23 c10
-11 30 -45 45 -75 24 -48 27 -67 27 -151 0 -87 -3 -101 -33 -162 -35 -71 -79
-113 -153 -147 -34 -15 -64 -19 -129 -18 l-85 1 86 7 c138 11 225 67 277 178
20 45 24 69 24 142 0 74 -4 97 -26 147 -15 32 -44 76 -64 98 -20 22 -26 31
-12 20 13 -11 33 -29 43 -40z m662 37 c-3 -3 -11 0 -18 7 -9 10 -8 11 6 5 10
-3 15 -9 12 -12z m-2069 -37 c17 -13 16 -14 -13 -4 -17 6 -44 9 -60 7 l-28 -3
-3 -228 -2 -227 46 -50 47 -50 -144 2 -144 2 123 3 c67 2 122 7 122 11 0 5
-13 21 -30 37 l-30 29 0 243 0 243 48 0 c27 0 57 -6 68 -15z m-3453 -33 c108
-169 51 -405 -118 -495 -32 -17 -60 -21 -140 -23 l-100 -2 90 7 c138 12 220
63 277 171 20 39 23 59 23 151 0 91 -3 113 -24 157 -14 29 -28 52 -33 52 -4 0
-8 5 -8 10 0 18 9 10 33 -28z m5627 -91 c47 -156 -14 -320 -148 -398 -41 -24
-58 -28 -147 -29 l-100 -2 90 7 c134 11 213 59 271 163 27 49 29 60 29 158 0
99 -2 109 -33 170 -29 57 -30 61 -9 35 14 -16 35 -63 47 -104z m-5495 -151
c-3 -5 -12 -10 -18 -10 -7 0 -6 4 3 10 19 12 23 12 15 0z m343 3 c-16 -2 -40
-2 -55 0 -16 2 -3 4 27 4 30 0 43 -2 28 -4z m2086 -97 c-22 -24 -43 -45 -49
-45 -5 -1 11 19 35 44 56 58 64 58 14 1z m-1562 -53 c36 -32 15 -86 -39 -99
-30 -8 -76 23 -81 54 -8 50 79 83 120 45z m58 -29 c13 -34 3 -72 -26 -91 -26
-17 -91 -20 -105 -6 -6 6 2 8 21 5 72 -10 121 32 102 88 -13 36 -5 40 8 4z
m-762 -366 c7 -7 12 -21 12 -33 0 -12 -5 -26 -12 -33 -7 -7 -21 -12 -33 -12
-12 0 -26 5 -33 12 -7 7 -12 21 -12 33 0 12 5 26 12 33 7 7 21 12 33 12 12 0
26 -5 33 -12z m4490 0 c7 -7 12 -21 12 -33 0 -12 -5 -26 -12 -33 -7 -7 -21
-12 -33 -12 -12 0 -26 5 -33 12 -7 7 -12 21 -12 33 0 12 5 26 12 33 7 7 21 12
33 12 12 0 26 -5 33 -12z m-3275 -4 c36 -6 37 -8 36 -48 -1 -22 -3 -33 -6 -23
-12 45 -130 64 -174 28 -36 -30 -16 -52 75 -81 93 -30 126 -58 126 -106 0 -19
-4 -34 -10 -34 -5 0 -10 11 -10 25 0 39 -41 69 -125 94 -92 28 -118 56 -94
100 23 42 94 59 182 45z m1365 -9 c16 -3 44 -21 63 -41 29 -30 33 -42 37 -97
4 -74 -16 -120 -67 -154 -29 -20 -47 -23 -122 -23 l-89 0 0 159 0 160 48 4
c47 4 78 2 130 -8z m773 -8 c91 -60 94 -227 6 -291 -22 -16 -43 -21 -92 -21
-110 0 -158 57 -153 182 3 64 7 76 33 104 38 40 58 48 121 48 37 1 60 -5 85
-22z m-1841 -147 l0 -160 -35 0 -35 0 20 20 c18 18 20 33 20 150 l0 130 -64 0
c-58 0 -67 -3 -85 -26 l-21 -27 0 37 0 36 100 0 100 0 0 -160z m229 148 c-2
-26 -17 -63 -18 -46 -1 26 -33 38 -95 38 l-56 0 0 -134 c0 -128 1 -136 22
-150 22 -16 21 -16 -20 -16 l-42 0 0 160 0 160 105 0 c78 0 105 -3 104 -12z
m111 -125 c0 -113 3 -140 17 -155 20 -22 6 -24 -25 -2 -20 14 -22 23 -22 119
0 102 -10 152 -33 167 -7 4 5 8 26 8 l37 0 0 -137z m74 123 c-17 -13 -19 -27
-19 -131 0 -112 1 -118 25 -137 33 -27 138 -22 170 7 21 19 22 27 18 133 -3
98 -6 116 -23 128 -17 13 -16 14 18 14 l37 0 0 -160 c0 -151 -1 -160 -19 -160
-11 0 -21 5 -23 10 -2 7 -14 7 -36 -1 -44 -15 -148 -7 -168 13 -23 23 -33 82
-34 196 l0 102 37 0 c34 0 35 -1 17 -14z m301 0 c-35 -25 -34 -256 1 -291 14
-13 12 -15 -20 -15 l-36 0 0 160 0 160 37 0 c34 0 35 -1 18 -14z m155 -146 l0
-160 -37 0 c-21 0 -33 4 -26 8 24 15 32 63 30 171 -2 97 -4 112 -22 125 -19
15 -18 15 18 16 l37 0 0 -160z m500 0 l0 -160 -35 0 -35 0 20 20 c18 18 20 33
20 142 0 99 -3 125 -17 140 -15 17 -14 18 15 18 l32 0 0 -160z m84 146 c-17
-13 -19 -27 -19 -146 0 -119 2 -133 19 -146 18 -13 17 -14 -17 -14 l-37 0 0
160 0 160 37 0 c34 0 35 -1 17 -14z m136 -48 c-25 -41 -27 -139 -5 -182 20
-37 13 -44 -14 -15 -50 54 -48 153 4 205 33 33 38 30 15 -8z m358 -8 c33 -49
31 -139 -4 -177 -20 -22 -24 -23 -19 -8 4 11 9 49 12 85 4 52 0 73 -15 103
-25 46 -6 44 26 -3z m-3356 -35 c35 -25 54 -45 49 -53 -4 -8 -30 4 -79 36 -54
36 -69 51 -60 60 13 13 13 13 90 -43z m925 -22 c10 -8 43 -21 73 -30 114 -33
145 -65 116 -121 -21 -40 -70 -54 -152 -44 l-59 7 -3 42 -3 42 34 -34 c30 -30
42 -35 81 -35 43 0 86 24 86 48 0 23 -33 45 -104 70 -91 31 -119 59 -109 107
l7 30 7 -35 c4 -18 16 -40 26 -47z m1692 43 c27 -44 27 -110 0 -155 -24 -40
-33 -36 -18 8 11 33 8 131 -6 164 -12 29 2 19 24 -17z m1629 -37 c-50 -33 -74
-45 -79 -37 -5 8 17 30 58 60 52 37 70 45 80 36 11 -9 -1 -21 -59 -59z m-4076
50 c26 -14 48 -68 48 -119 0 -38 -2 -40 -20 -30 -11 6 -20 21 -20 34 0 13 -9
31 -20 41 -11 10 -20 26 -20 37 0 13 -7 18 -25 18 -18 0 -25 -5 -25 -20 0 -13
-7 -20 -19 -20 -33 0 -36 22 -7 47 29 25 74 30 108 12z m3984 -12 c29 -25 26
-47 -7 -47 -12 0 -19 7 -19 20 0 15 -7 20 -25 20 -18 0 -25 -5 -25 -18 0 -11
-9 -27 -20 -37 -11 -10 -20 -28 -20 -41 0 -13 -9 -28 -20 -34 -18 -10 -20 -8
-20 30 0 49 22 104 47 119 31 18 80 13 109 -12z m-4026 -102 c0 -69 -3 -85
-15 -85 -12 0 -15 16 -15 85 0 69 3 85 15 85 12 0 15 -16 15 -85z m3990 0 c0
-69 -3 -85 -15 -85 -12 0 -15 16 -15 85 0 69 3 85 15 85 12 0 15 -16 15 -85z
m-4030 -1 c0 -48 -13 -52 -24 -8 -6 22 6 54 20 54 2 0 4 -21 4 -46z m80 2 c0
-6 -7 -20 -15 -30 -14 -18 -15 -16 -15 30 1 45 2 48 15 30 8 -11 15 -25 15
-30z m3910 -3 c0 -47 0 -47 -16 -24 -13 18 -14 28 -5 47 16 35 21 30 21 -23z
m75 -2 c-12 -49 -25 -47 -25 3 0 43 2 47 16 35 10 -8 13 -21 9 -38z m-4075
-48 c6 -7 10 -19 10 -28 0 -9 9 -15 25 -15 16 0 25 6 25 15 0 21 10 18 49 -15
l35 -30 -25 -27 c-14 -16 -65 -72 -114 -126 -48 -53 -89 -96 -90 -95 -2 2 3
80 11 173 7 94 13 181 14 195 l1 25 25 -30 c13 -16 29 -35 34 -42z m4129 -88
c6 -83 14 -170 16 -195 l5 -45 -61 65 c-34 36 -86 93 -117 128 l-55 63 34 29
c39 33 49 36 49 15 0 -9 9 -15 25 -15 16 0 25 6 25 15 0 9 5 21 10 28 6 7 20
25 31 40 12 15 23 27 24 25 2 -2 9 -71 14 -153z m-3774 108 c14 -21 59 -86 99
-145 41 -59 72 -109 69 -112 -7 -6 -213 268 -213 283 0 22 19 10 45 -26z m48
-4 c16 -23 25 -44 22 -48 -9 -8 -65 58 -65 76 0 23 14 13 43 -28z m3297 28 c0
-18 -56 -84 -65 -76 -7 8 45 88 58 89 4 0 7 -6 7 -13z m50 2 c0 -15 -206 -289
-213 -283 -3 3 28 53 69 112 40 59 85 124 99 145 26 36 45 48 45 26z m-3594
-84 c-4 -16 -19 -12 -50 12 -18 15 -26 28 -22 39 5 13 11 12 40 -13 19 -15 33
-32 32 -38z m3823 42 c-1 -21 -59 -61 -71 -49 -7 7 0 19 23 40 33 30 50 33 48
9z m-3636 -45 c17 -23 27 -45 23 -49 -9 -9 -75 66 -76 85 0 23 21 8 53 -36z
m3427 37 c0 -13 -61 -89 -72 -89 -15 0 -9 15 23 58 30 41 49 53 49 31z m-3455
-98 c-11 -10 -117 -94 -235 -186 -118 -92 -232 -181 -252 -197 l-37 -29 -14
27 -14 27 266 208 c263 205 266 207 286 188 19 -19 19 -19 0 -38z m3751 -178
l231 -180 -14 -27 -14 -27 -37 29 c-20 16 -134 105 -252 197 -272 212 -259
199 -236 224 19 21 19 20 55 -8 20 -15 140 -109 267 -208z m-3926 153 c0 -17
-16 -36 -57 -67 -99 -76 -100 -75 -24 9 40 45 75 82 77 82 2 0 4 -11 4 -24z
m3861 -58 c76 -84 75 -85 -24 -9 -41 31 -57 50 -57 67 0 13 2 24 4 24 2 0 37
-37 77 -82z m-3696 -7 c8 -14 -214 -186 -225 -175 -6 6 36 45 101 97 61 48
112 87 114 87 2 0 6 -4 10 -9z m3582 -85 c60 -47 99 -84 93 -90 -11 -11 -233
162 -224 175 7 12 11 10 131 -85z m-3667 62 c-1 -17 -82 -78 -94 -71 -5 4 10
24 35 45 47 40 59 46 59 26z m3679 -26 c25 -21 40 -41 35 -45 -12 -7 -93 54
-94 71 0 20 12 14 59 -26z m-3585 -17 c51 -80 57 -66 -48 -123 -51 -29 -98
-52 -103 -52 -12 0 -46 60 -38 68 16 17 161 131 166 131 4 1 14 -10 23 -24z
m246 16 c0 -8 -893 -513 -905 -512 -20 3 2 21 88 69 54 30 96 57 93 59 -2 2
-44 -18 -94 -46 -89 -51 -113 -56 -184 -45 l-37 6 91 75 91 74 23 -22 c15 -14
44 -25 77 -30 l52 -7 335 185 c184 102 339 189 345 194 11 11 25 12 25 0z
m2997 -20 c27 -15 183 -103 348 -194 l300 -165 52 7 c33 5 62 16 77 30 l23 22
91 -74 91 -75 -37 -6 c-71 -11 -95 -6 -184 45 -50 28 -92 48 -94 46 -3 -2 39
-29 93 -59 86 -48 108 -66 88 -69 -12 -1 -905 504 -905 512 0 13 6 11 57 -20z
m298 -38 c47 -36 85 -68 85 -70 0 -12 -35 -63 -43 -63 -5 0 -52 23 -103 52
-105 57 -99 43 -48 123 9 14 18 25 20 25 2 0 42 -30 89 -67z m-3988 -60 c-17
-13 -33 -23 -36 -23 -3 0 -16 15 -27 33 l-21 33 30 22 31 21 27 -32 27 -32
-31 -22z m728 36 c40 -57 51 -79 39 -79 -5 0 -27 26 -49 57 -47 67 -50 73 -37
73 6 0 27 -23 47 -51z m2923 43 c-9 -22 -84 -122 -92 -122 -4 0 -6 6 -3 14 10
26 79 116 89 116 5 0 8 -4 6 -8z m739 -21 l22 -15 -21 -30 c-12 -17 -23 -33
-25 -35 -1 -2 -18 7 -37 19 l-34 24 26 32 c14 18 31 30 37 26 5 -4 20 -14 32
-21z m-3808 -148 c34 -47 61 -89 61 -93 0 -9 -158 -130 -170 -130 -13 0 -145
199 -137 206 9 9 170 102 179 103 4 1 34 -38 67 -86z m3324 33 c59 -32 87 -53
83 -62 -11 -28 -127 -194 -136 -194 -12 0 -170 121 -170 130 0 12 122 181 128
178 4 -2 47 -25 95 -52z m-3723 26 c0 -12 -220 -185 -227 -178 -9 9 11 28 120
112 91 71 107 81 107 66z m4074 -72 c107 -82 123 -97 112 -107 -6 -6 -226 168
-226 179 0 14 8 9 114 -72z m-4195 9 c-41 -34 -59 -41 -59 -19 0 14 82 70 93
63 6 -3 -10 -23 -34 -44z m799 -11 l51 -63 -37 -32 c-20 -18 -40 -32 -44 -33
-3 0 -28 30 -54 67 l-47 66 33 29 c19 15 37 28 41 28 4 0 30 -28 57 -62z
m2702 34 l33 -29 -47 -66 c-26 -37 -51 -67 -54 -67 -4 1 -24 15 -44 33 l-37
32 51 63 c27 34 53 62 57 62 4 0 22 -13 41 -28z m734 -15 c17 -14 26 -28 22
-35 -5 -9 -21 -1 -52 24 -24 20 -41 40 -38 45 6 10 26 0 68 -34z m-4110 -9 c9
-12 16 -26 16 -30 0 -3 -43 -30 -96 -59 -77 -41 -98 -49 -105 -38 -5 9 -3 19
4 26 23 23 152 122 159 123 4 0 14 -10 22 -22z m4062 -43 c56 -44 81 -70 78
-80 -4 -8 -8 -15 -11 -15 -12 0 -193 102 -193 108 0 10 30 52 37 52 3 0 43
-29 89 -65z m-3243 0 c-16 -7 -39 -25 -51 -40 -12 -15 -29 -25 -38 -23 -13 2
-2 15 37 44 30 23 60 39 68 36 8 -3 2 -9 -16 -17z m2405 -63 c-8 -2 -31 13
-51 33 -19 19 -43 35 -53 35 -15 0 -16 2 -5 9 10 7 31 -3 69 -32 35 -27 50
-43 40 -45z m-3723 58 c18 -20 18 -21 -1 -35 -41 -33 -48 -34 -66 -10 -17 23
-17 24 8 44 33 26 36 26 59 1z m5009 -1 c25 -20 25 -21 8 -44 -18 -24 -25 -23
-66 10 -19 14 -19 15 -1 35 23 25 26 25 59 -1z m-4926 -11 c7 -10 -21 -37
-109 -106 -131 -102 -144 -110 -152 -88 -4 11 30 43 116 110 67 52 125 95 128
95 4 1 11 -5 17 -11z m4927 -83 c88 -68 122 -100 118 -111 -8 -22 -21 -14
-152 88 -88 69 -116 96 -109 106 6 6 12 12 15 12 2 0 60 -43 128 -95z m-3604
56 c20 -20 29 -39 29 -61 0 -40 -47 -90 -85 -90 -38 0 -85 50 -85 90 0 40 47
90 85 90 16 0 38 -12 56 -29z m2250 0 c20 -20 29 -39 29 -61 0 -40 -47 -90
-85 -90 -38 0 -85 50 -85 90 0 40 47 90 85 90 16 0 38 -12 56 -29z m-3524 3
c4 -10 -2 -23 -14 -33 -11 -9 -67 -53 -123 -99 -94 -76 -104 -82 -119 -68 -14
15 -14 17 4 30 11 8 67 53 125 99 58 47 109 86 113 86 4 1 10 -6 14 -15z m455
-37 c20 -29 55 -78 78 -109 l41 -57 -85 -65 c-46 -36 -86 -66 -90 -66 -3 0
-46 54 -96 119 l-90 120 98 55 c53 30 99 55 102 55 3 0 22 -23 42 -52z m3919
-3 l99 -55 -90 -120 c-50 -65 -93 -119 -96 -119 -4 0 -44 30 -90 66 l-85 65
41 57 c23 31 58 80 78 109 20 29 39 52 41 53 1 0 48 -25 102 -56z m452 -41
c67 -53 124 -98 126 -100 3 -2 -2 -10 -11 -19 -14 -14 -25 -8 -118 68 -56 46
-112 90 -123 99 -18 14 -19 49 -2 49 3 0 60 -44 128 -97z m-3963 68 c0 -17
-198 -171 -220 -171 -23 0 -4 19 98 97 107 82 122 91 122 74z m3080 -73 c104
-79 124 -98 100 -98 -22 0 -220 154 -220 171 0 16 10 10 120 -73z m-2830 27
c0 -21 -5 -25 -30 -25 -25 0 -30 4 -30 25 0 21 5 25 30 25 25 0 30 -4 30 -25z
m2520 0 c0 -21 -5 -25 -30 -25 -25 0 -30 4 -30 25 0 21 5 25 30 25 25 0 30 -4
30 -25z m-2220 -5 c0 -17 -7 -20 -40 -20 -33 0 -40 3 -40 20 0 17 7 20 40 20
33 0 40 -3 40 -20z m1940 0 c0 -17 -7 -20 -40 -20 -33 0 -40 3 -40 20 0 17 7
20 40 20 33 0 40 -3 40 -20z m-2310 -10 c0 -16 7 -20 30 -20 23 0 41 -10 68
-39 l37 -39 -57 -37 c-54 -35 -58 -36 -80 -21 -34 24 -71 19 -124 -17 -27 -18
-113 -77 -191 -130 l-142 -97 -17 25 c-16 25 -16 27 2 40 10 7 118 90 239 183
121 94 223 171 228 171 4 1 7 -8 7 -19z m2848 -162 c130 -99 239 -182 241
-184 2 -2 -4 -15 -13 -29 l-17 -25 -142 97 c-78 53 -164 112 -191 130 -53 36
-90 41 -124 17 -22 -15 -26 -14 -80 21 l-57 37 37 39 c27 29 45 39 68 39 23 0
30 4 30 20 0 11 2 20 5 20 3 0 112 -82 243 -182z m-3078 143 c0 -5 -18 -24
-40 -41 -24 -19 -40 -26 -40 -18 0 7 17 25 38 40 42 31 42 31 42 19z m72 -18
l16 -28 -291 -224 c-160 -123 -297 -224 -305 -225 -8 -1 -20 9 -28 20 -14 21
-5 30 283 253 163 127 300 231 303 231 3 0 13 -12 22 -27z m3247 -208 c282
-219 291 -228 277 -249 -8 -11 -20 -21 -28 -20 -8 1 -145 102 -305 225 l-291
224 16 28 c9 15 22 25 28 23 6 -2 142 -106 303 -231z m-179 167 c0 -8 -16 -1
-40 18 -52 41 -52 60 0 23 22 -15 40 -34 40 -41z m-3670 -103 c52 -78 98 -143
103 -146 4 -2 20 6 36 19 16 13 46 37 67 53 59 48 72 56 78 47 4 -7 -252 -216
-302 -245 -8 -6 -20 -3 -31 7 -10 9 -25 16 -34 16 -8 0 -28 5 -44 11 l-28 11
36 14 c41 17 69 59 69 104 0 23 -10 42 -34 66 -42 42 -82 45 -125 9 l-30 -26
-30 45 -31 45 97 55 c54 30 100 55 103 55 3 0 48 -63 100 -140z m4321 85 l99
-55 -31 -45 -30 -45 -30 26 c-43 36 -83 33 -125 -9 -24 -24 -34 -43 -34 -66 0
-45 28 -87 69 -104 l36 -14 -28 -11 c-16 -6 -36 -11 -44 -11 -9 0 -24 -7 -34
-16 -11 -10 -23 -13 -31 -7 -50 29 -306 238 -302 245 6 9 19 1 78 -47 21 -16
51 -40 67 -53 16 -13 32 -21 36 -19 5 3 51 68 103 146 52 77 97 141 99 141 1
0 48 -25 102 -56z m-3381 -61 l22 -37 -34 -27 c-36 -30 -43 -28 -79 22 l-20
28 38 25 c21 15 41 26 44 26 4 0 17 -17 29 -37z m2313 11 l38 -25 -20 -28
c-36 -50 -43 -52 -79 -22 l-34 27 22 37 c12 20 25 37 29 37 3 0 23 -11 44 -26z
m-2944 -10 c-24 -29 -199 -157 -206 -150 -9 9 4 21 112 104 50 39 94 68 98 65
4 -3 3 -11 -4 -19z m3708 -137 c3 -4 2 -11 -1 -14 -11 -12 -219 154 -210 168
5 8 197 -132 211 -154z m-2949 124 c-3 -10 -223 -181 -233 -181 -24 0 14 40
104 110 92 71 139 97 129 71z m2113 -71 c90 -70 128 -110 104 -110 -10 0 -230
171 -233 181 -10 26 37 0 129 -71z m-2541 37 c0 -21 -22 -37 -49 -37 l-26 1
30 24 c34 28 45 31 45 12z m859 -542 c0 -8 -77 -72 -204 -168 l-24 -18 -210
280 -211 280 116 90 116 91 209 -273 c115 -149 208 -276 208 -282z m1663 458
l108 -84 -211 -280 -210 -280 -24 18 c-141 107 -204 160 -202 170 4 24 412
550 422 545 6 -3 58 -43 117 -89z m363 72 l30 -24 -25 -1 c-28 0 -50 16 -50
37 0 19 11 16 45 -12z m-3641 -6 c73 -34 46 -159 -34 -159 -56 0 -93 64 -70
119 18 44 59 60 104 40z m4420 0 c73 -34 46 -159 -34 -159 -56 0 -93 64 -70
119 18 44 59 60 104 40z m-4035 -201 c-27 -23 -55 -23 -64 -1 -4 12 2 25 21
41 l27 24 19 -24 c17 -22 17 -23 -3 -40z m3639 29 c16 -18 5 -47 -17 -47 -9 0
-27 7 -39 15 -21 15 -21 17 -6 40 17 26 37 23 62 -8z m-3558 -10 c0 -19 -21
-37 -42 -37 -25 0 -23 14 5 33 27 20 37 21 37 4z m3455 -3 c29 -19 32 -34 7
-34 -21 0 -42 18 -42 37 0 17 6 16 35 -3z m-2275 -378 c0 -16 -203 -181 -222
-181 -32 0 -5 32 96 110 59 47 112 85 117 85 5 0 9 -6 9 -14z m1186 -71 c101
-78 128 -110 96 -110 -19 0 -222 165 -222 181 0 8 4 14 9 14 5 0 58 -38 117
-85z m-1217 -197 c17 -15 40 -28 51 -28 11 0 20 -6 20 -13 0 -8 11 -42 26 -76
14 -35 24 -65 22 -67 -3 -2 -188 225 -225 276 -10 15 -7 21 25 44 l37 26 6
-67 c5 -58 10 -70 38 -95z m1218 125 l23 -18 -117 -147 c-65 -81 -119 -145
-121 -144 -2 2 8 32 22 67 15 34 26 68 26 76 0 7 9 13 20 13 11 0 34 13 52 29
29 25 32 35 36 94 5 72 6 72 59 30z m-924 -744 c9 -12 17 -36 17 -54 0 -34
-10 -46 -95 -119 l-30 -25 52 -1 c39 0 55 4 62 18 9 15 10 15 11 -5 0 -45 -5
-48 -95 -45 -47 2 -85 7 -85 11 0 4 27 29 61 55 73 57 99 105 75 141 -9 13
-25 26 -36 30 -27 9 -68 -18 -76 -50 -3 -14 -11 -25 -16 -25 -12 0 -1 49 15
69 30 36 110 37 140 0z m201 21 c40 -15 59 -63 54 -136 -5 -78 -32 -114 -85
-114 -47 0 -72 16 -89 55 -28 67 -10 156 37 189 27 18 47 20 83 6z m250 -11
c20 -16 26 -29 26 -60 0 -43 -15 -63 -90 -121 l-35 -27 52 -1 c39 0 54 4 62
17 13 24 20 14 14 -22 l-5 -30 -86 4 c-48 1 -89 5 -92 8 -3 2 9 14 25 26 59
41 125 116 125 142 0 30 -32 65 -59 65 -27 0 -62 -31 -64 -57 -2 -30 -17 -30
-17 0 0 65 89 99 144 56z m224 5 c59 -41 45 -107 -37 -169 -28 -21 -51 -40
-51 -42 0 -2 25 -3 55 -3 42 0 55 3 55 15 0 8 5 15 11 15 6 0 8 -7 5 -16 -3
-9 -6 -23 -6 -32 0 -15 -11 -17 -87 -13 -49 1 -90 5 -92 7 -3 3 6 12 20 21 13
9 48 40 77 69 46 45 53 57 50 85 -4 47 -46 71 -85 49 -18 -10 -29 -26 -31 -43
-4 -32 -22 -36 -22 -4 1 61 85 98 138 61z"/>
<path d="M4916 6053 c-6 -14 -5 -15 5 -6 7 7 10 15 7 18 -3 3 -9 -2 -12 -12z"/>
<path d="M4950 6027 c0 -35 4 -47 13 -45 18 7 20 50 3 73 -14 19 -15 17 -16
-28z"/>
<path d="M4902 6010 c0 -14 2 -19 5 -12 2 6 2 18 0 25 -3 6 -5 1 -5 -13z"/>
<path d="M4841 5975 c-1 -37 14 -55 49 -55 24 1 24 1 -7 15 -22 9 -33 22 -36
42 l-4 28 -2 -30z"/>
<path d="M4870 5991 c0 -5 14 -19 30 -31 17 -12 30 -17 30 -11 0 5 -13 19 -30
31 -16 12 -30 17 -30 11z"/>
<path d="M4983 5978 c-31 -15 -29 -30 2 -16 14 6 25 15 25 20 0 9 1 10 -27 -4z"/>
<path d="M5040 5965 c0 -9 -15 -22 -32 -30 -27 -12 -29 -14 -11 -15 24 0 53
24 53 46 0 8 -2 14 -5 14 -3 0 -5 -7 -5 -15z"/>
<path d="M4356 5956 c3 -8 12 -12 19 -10 7 3 20 -4 28 -16 13 -19 15 -19 21
-3 4 9 4 14 0 11 -4 -4 -18 2 -32 12 -29 24 -44 26 -36 6z"/>
<path d="M4631 5961 c-12 -8 -12 -12 -2 -25 15 -18 39 -20 61 -6 10 6 11 12 5
18 -17 16 -49 22 -64 13z"/>
<path d="M5213 5960 c-28 -12 -29 -27 -3 -35 29 -9 62 4 58 23 -4 20 -25 24
-55 12z"/>
<path d="M5509 5955 c-32 -18 -53 -60 -39 -83 8 -14 9 -11 10 14 0 30 25 64
48 64 7 0 12 5 12 10 0 12 1 12 -31 -5z"/>
<path d="M4441 5913 c-1 -12 -4 -30 -7 -40 -6 -16 -5 -17 10 -2 13 12 14 21 7
40 -9 23 -10 23 -10 2z"/>
<path d="M4600 5911 c0 -6 4 -13 10 -16 6 -3 7 1 4 9 -7 18 -14 21 -14 7z"/>
<path d="M5190 5911 c0 -6 4 -13 10 -16 6 -3 7 1 4 9 -7 18 -14 21 -14 7z"/>
<path d="M4928 5903 c6 -2 18 -2 25 0 6 3 1 5 -13 5 -14 0 -19 -2 -12 -5z"/>
<path d="M5430 5893 c0 -11 7 -27 16 -34 15 -12 16 -11 9 11 -10 35 -25 49
-25 23z"/>
<path d="M4643 5883 c9 -2 23 -2 30 0 6 3 -1 5 -18 5 -16 0 -22 -2 -12 -5z"/>
<path d="M5228 5883 c6 -2 18 -2 25 0 6 3 1 5 -13 5 -14 0 -19 -2 -12 -5z"/>
<path d="M5386 5871 c-7 -20 -4 -29 14 -43 31 -25 48 -22 23 5 -12 12 -23 31
-25 42 -4 18 -5 18 -12 -4z"/>
<path d="M4491 5869 c0 -9 -11 -23 -23 -32 -13 -8 -20 -18 -17 -21 12 -13 51
30 46 49 -3 15 -5 16 -6 4z"/>
<path d="M4648 5863 c6 -2 18 -2 25 0 6 3 1 5 -13 5 -14 0 -19 -2 -12 -5z"/>
<path d="M5238 5863 c7 -3 16 -2 19 1 4 3 -2 6 -13 5 -11 0 -14 -3 -6 -6z"/>
<path d="M4648 5843 c7 -3 16 -2 19 1 4 3 -2 6 -13 5 -11 0 -14 -3 -6 -6z"/>
<path d="M4640 5806 c-16 -32 -32 -38 -105 -45 l-60 -6 34 -19 c25 -13 60 -19
130 -21 53 -1 80 -1 60 2 l-36 4 5 54 c5 59 -6 71 -28 31z"/>
<path d="M5407 5714 c-10 -13 -13 -24 -8 -24 10 0 36 39 29 45 -2 2 -11 -8
-21 -21z"/>
<path d="M4460 5720 c0 -21 16 -44 23 -33 4 6 0 19 -8 29 -11 15 -14 16 -15 4z"/>
<path d="M4883 5703 c59 -2 154 -2 210 0 56 1 8 3 -108 3 -115 0 -161 -2 -102
-3z"/>
<path d="M5283 5693 c9 -2 23 -2 30 0 6 3 -1 5 -18 5 -16 0 -22 -2 -12 -5z"/>
<path d="M4798 5683 c83 -2 221 -2 305 0 83 1 15 3 -153 3 -168 0 -236 -2
-152 -3z"/>
<path d="M4558 5673 c6 -2 18 -2 25 0 6 3 1 5 -13 5 -14 0 -19 -2 -12 -5z"/>
<path d="M5308 5673 c6 -2 18 -2 25 0 6 3 1 5 -13 5 -14 0 -19 -2 -12 -5z"/>
<path d="M5375 5671 l-20 -8 20 -6 c11 -4 7 -4 -10 -1 -16 3 -113 8 -215 11
-183 5 -185 5 -167 -14 21 -24 22 -61 1 -84 -15 -16 -12 -18 48 -23 35 -3 115
-8 178 -11 63 -3 132 -8 153 -12 l39 -6 -4 67 c-2 38 1 68 7 70 6 3 4 5 -3 5
-7 1 -10 6 -7 11 7 11 7 11 -20 1z m-143 -28 c23 -21 23 -45 0 -73 -24 -30
-69 -21 -78 15 -7 30 2 59 16 50 6 -4 10 -3 9 2 -5 28 25 32 53 6z m-134 -12
c20 -12 10 -45 -14 -49 -31 -4 -49 22 -29 42 19 18 25 19 43 7z m290 -96 c-2
-2 -28 0 -58 5 -30 4 -46 8 -35 9 19 2 19 2 3 15 -10 7 -18 23 -18 35 0 18 6
21 44 21 25 0 48 6 53 13 5 7 9 -10 11 -42 2 -29 2 -55 0 -56z"/>
<path d="M5192 5624 c1 -9 9 -19 16 -22 9 -3 13 2 10 14 -1 9 -9 19 -16 22 -9
3 -13 -2 -10 -14z"/>
<path d="M5210 5570 c-9 -6 -10 -10 -3 -10 6 0 15 5 18 10 8 12 4 12 -15 0z"/>
<path d="M5065 5620 c-3 -5 3 -10 15 -10 12 0 18 5 15 10 -3 6 -10 10 -15 10
-5 0 -12 -4 -15 -10z"/>
<path d="M5300 5601 c0 -5 7 -11 15 -15 9 -3 15 0 15 9 0 8 -7 15 -15 15 -8 0
-15 -4 -15 -9z"/>
<path d="M4567 5660 c-32 -4 -61 -11 -65 -14 -12 -13 22 -27 54 -22 40 6 57
-5 52 -35 -5 -35 -18 -45 -70 -52 l-47 -6 -4 57 -3 57 -2 -64 -2 -63 38 7 c20
4 116 11 212 15 96 5 176 9 177 9 1 1 -5 14 -15 30 -13 24 -14 33 -4 56 8 18
18 25 28 21 8 -3 12 -2 9 4 -3 6 -53 10 -111 10 l-105 0 36 -31 c19 -17 33
-35 30 -39 -3 -5 3 -13 12 -19 10 -6 14 -11 8 -11 -5 -1 -1 -5 10 -10 13 -6
-7 -9 -60 -9 -58 0 -74 3 -60 10 16 7 14 8 -9 4 -23 -5 -27 -3 -22 10 3 10 2
14 -5 9 -7 -4 -9 6 -7 27 2 24 10 37 28 46 25 13 25 13 -10 12 -19 -1 -61 -5
-93 -9z m277 -26 c9 -3 16 -15 16 -26 0 -14 -5 -18 -16 -14 -8 3 -12 2 -9 -4
10 -16 -21 -11 -35 5 -10 12 -10 18 0 30 14 17 21 18 44 9z"/>
<path d="M4807 5617 c-4 -10 2 -13 19 -9 13 2 21 8 18 13 -8 14 -31 11 -37 -4z"/>
<path d="M4680 5628 c0 -8 9 -23 19 -32 19 -17 19 -17 14 3 -7 27 -33 50 -33
29z"/>
<path d="M4930 5626 c0 -10 9 -16 21 -16 24 0 21 23 -4 28 -10 2 -17 -3 -17
-12z"/>
<path d="M4982 5610 c0 -14 2 -19 5 -12 2 6 2 18 0 25 -3 6 -5 1 -5 -13z"/>
<path d="M4570 5610 c0 -5 7 -10 16 -10 8 0 12 5 9 10 -3 6 -10 10 -16 10 -5
0 -9 -4 -9 -10z"/>
<path d="M4909 5578 c7 -10 23 -17 35 -17 20 1 20 2 1 6 -11 3 -27 10 -35 17
-13 10 -13 9 -1 -6z"/>
<path d="M4588 5518 c-48 -3 -95 -11 -105 -18 -16 -10 -15 -10 7 -4 14 3 176
9 360 11 184 3 340 8 347 11 15 9 -497 9 -609 0z"/>
<path d="M5284 5511 c4 -6 25 -11 46 -11 21 0 41 -4 45 -10 3 -5 13 -6 21 -3
24 9 0 19 -65 28 -38 5 -52 4 -47 -4z"/>
<path d="M4505 5190 c-20 -39 -20 -40 20 -40 19 0 35 2 35 5 0 9 -30 65 -35
65 -2 0 -11 -13 -20 -30z"/>
<path d="M4867 5273 c-4 -3 -7 -30 -7 -60 0 -50 1 -53 26 -53 58 0 89 50 59
96 -15 23 -62 34 -78 17z"/>
<path d="M6981 4750 c-50 -12 -83 -40 -111 -96 -23 -44 -25 -61 -25 -169 0
-108 3 -125 25 -170 33 -65 91 -98 163 -92 58 5 94 30 126 86 50 91 48 309 -5
378 -45 59 -103 80 -173 63z m139 -46 c16 -10 18 -13 5 -8 -11 3 -43 9 -71 11
-69 7 -105 -13 -135 -74 -21 -42 -24 -63 -24 -158 0 -102 2 -115 28 -165 24
-45 25 -51 8 -36 -38 34 -56 103 -55 206 3 170 51 240 163 240 32 -1 67 -7 81
-16z"/>
<path d="M2085 4745 c-87 -31 -125 -111 -125 -266 0 -110 15 -163 60 -210 49
-51 81 -53 34 -2 -19 20 -39 53 -45 73 -28 93 -19 242 17 313 22 42 71 67 129
67 28 0 56 -4 63 -8 7 -5 -15 -6 -48 -4 -70 5 -96 -7 -131 -65 -22 -35 -24
-49 -24 -163 0 -135 9 -166 70 -234 23 -25 31 -28 72 -23 56 6 91 31 123 88
23 41 25 53 25 184 0 114 -3 146 -17 172 -40 72 -127 106 -203 78z"/>
<path d="M4857 4596 c-20 -47 -37 -88 -37 -91 0 -14 93 -114 101 -109 16 9 10
20 -33 62 l-42 42 32 72 c18 40 32 81 32 91 0 36 -18 14 -53 -67z"/>
<path d="M4896 4575 c-14 -32 -26 -63 -26 -69 0 -7 17 -28 38 -49 l37 -36 29
22 28 23 -32 75 c-18 40 -36 78 -40 82 -4 5 -19 -17 -34 -48z"/>
<path d="M7678 4748 c-46 -12 -103 -73 -117 -125 -14 -49 -14 -227 0 -276 23
-84 105 -137 193 -123 93 15 135 85 143 234 6 111 -8 198 -38 237 -40 49 -114
72 -181 53z m147 -45 l20 -16 -20 9 c-11 4 -46 10 -78 12 -54 4 -59 2 -91 -30
-45 -45 -58 -99 -54 -222 2 -80 8 -110 25 -145 27 -54 23 -65 -6 -18 -45 73
-53 242 -15 336 26 66 64 91 137 91 42 -1 69 -6 82 -17z"/>
<path d="M5170 3841 c-11 -21 -12 -176 -1 -226 6 -28 9 -30 61 -33 96 -6 150
44 150 138 0 91 -52 140 -149 140 -39 0 -53 -4 -61 -19z"/>
<path d="M5960 3864 c-78 -28 -108 -104 -80 -206 15 -53 51 -78 114 -78 61 0
92 19 112 66 27 66 8 174 -36 202 -23 14 -89 24 -110 16z"/>
<path d="M2682 2778 c-21 -21 -15 -75 10 -92 30 -21 51 -20 73 4 25 27 27 50
9 78 -16 25 -71 31 -92 10z m76 -10 c7 -7 12 -21 12 -33 0 -12 -5 -26 -12 -33
-7 -7 -21 -12 -33 -12 -12 0 -26 5 -33 12 -7 7 -12 21 -12 33 0 12 5 26 12 33
7 7 21 12 33 12 12 0 26 -5 33 -12z"/>
<path d="M7106 2768 c-18 -28 -16 -51 9 -78 22 -24 43 -25 73 -4 25 17 31 71
10 92 -21 21 -76 15 -92 -10z m82 0 c7 -7 12 -21 12 -33 0 -12 -5 -26 -12 -33
-7 -7 -21 -12 -33 -12 -12 0 -26 5 -33 12 -7 7 -12 21 -12 33 0 12 5 26 12 33
7 7 21 12 33 12 12 0 26 -5 33 -12z"/>
<path d="M4801 1344 c-16 -21 -21 -41 -21 -91 0 -55 4 -67 25 -88 21 -22 27
-23 49 -14 48 22 60 135 22 194 -21 32 -49 32 -75 -1z"/>
</g>
</svg>
